PathFileType	4	(X/Y/Z)	C:/Users/opensim2020/Desktop/walking_exp_matlab/subject01_walking05_straight_04.trc	
DataRate	CameraRate	NumFrames	NumMarkers	Units	OrigDataRate	OrigDataStartFrame	OrigNumFrames	
100.00	100.00	5	43	mm	100.00	2951	283	
Frame#	Time	LFHD			RFHD			LBHD			RBHD			C7			T10			CLAV			STRN			RBAK			LSHO			LUPA			LELB			LFRM			LWRA			LWRB			LFIN			RSHO			RUPA			RELB			RFRM			RWRA			RWRB			RFIN			LASI			RASI			LPSI			RPSI			LTHI			LKNE			LTIB			LANK			LHEE			LTOE			RTHI			RKNE			RTIB			RANK			RHEE			RTOE			*39			*40			*41			*42			
		X1	Y1	Z1	X2	Y2	Z2	X3	Y3	Z3	X4	Y4	Z4	X5	Y5	Z5	X6	Y6	Z6	X7	Y7	Z7	X8	Y8	Z8	X9	Y9	Z9	X10	Y10	Z10	X11	Y11	Z11	X12	Y12	Z12	X13	Y13	Z13	X14	Y14	Z14	X15	Y15	Z15	X16	Y16	Z16	X17	Y17	Z17	X18	Y18	Z18	X19	Y19	Z19	X20	Y20	Z20	X21	Y21	Z21	X22	Y22	Z22	X23	Y23	Z23	X24	Y24	Z24	X25	Y25	Z25	X26	Y26	Z26	X27	Y27	Z27	X28	Y28	Z28	X29	Y29	Z29	X30	Y30	Z30	X31	Y31	Z31	X32	Y32	Z32	X33	Y33	Z33	X34	Y34	Z34	X35	Y35	Z35	X36	Y36	Z36	X37	Y37	Z37	X38	Y38	Z38	X39	Y39	Z39	X40	Y40	Z40	X41	Y41	Z41	X42	Y42	Z42	X43	Y43	Z43	

177	1.760	1500.70398	-200.52885	1668.43872	1389.70667	-227.70244	1674.84534	1478.35864	-85.45989	1623.88208	1359.73755	-111.25860	1629.54114	1428.25537	-52.89227	1427.61938	1412.96851	-24.09525	1135.38733	1445.30847	-196.66689	1363.74854	1451.46558	-243.32458	1210.09595	1338.63794	-15.01699	1233.62317	1597.85596	-111.71780	1390.09607	1665.52600	-48.61586	1207.69678	1651.32654	-19.09595	1059.60303	1676.58313	-39.38501	947.46899	1668.86084	-108.54707	824.65576	1678.40942	-48.59658	824.87897	1688.23596	-84.54481	747.10486	1288.42798	-150.24658	1395.00562	1170.00867	-120.33613	1200.29431	1154.32922	-137.20715	1074.91748	1129.86987	-213.44901	977.39240	1160.71252	-334.29514	908.90247	1118.50708	-299.05392	890.56525	1123.96204	-367.71231	840.16052	1536.55310	-189.05312	932.76514	1319.55469	-198.81021	927.89209	1479.11157	-5.99401	939.84222	1335.45264	-13.24820	945.14587	1607.86523	-246.23135	620.13824	1590.82458	-276.35587	488.95313	1599.02771	-240.76804	304.88550	1551.90747	-246.13876	81.65810	1490.08643	-214.72290	47.23599	1571.78394	-388.33542	56.35275	1274.79834	-104.00027	598.75464	1304.41492	-83.29179	440.77008	1299.55981	-3.58980	282.71268	1355.67908	57.56326	85.17171	1403.30798	113.83940	56.54179	1368.50403	-77.27306	33.22253	1410.86047	-212.82498	1708.34009	-3101.86865	1973.11609	1023.35333	-3140.56885	2012.51917	1021.96478			 
178	1.770	1501.96545	-210.16832	1667.44995	1390.93970	-237.46175	1673.94482	1479.50110	-95.20097	1622.89209	1360.82288	-120.53307	1628.83252	1429.18738	-62.50090	1426.71301	1413.90356	-33.68909	1134.48669	1446.30896	-206.39005	1363.02527	1452.10852	-253.03543	1209.25037	1339.45166	-24.61424	1232.88159	1598.86316	-121.41269	1389.13550	1666.20898	-57.55947	1206.87830	1651.33728	-27.44627	1058.99219	1676.28894	-46.22149	946.66986	1668.38269	-113.56863	822.91510	1677.85950	-53.62221	823.97980	1687.38708	-88.27519	745.61951	1289.38306	-159.86307	1394.30078	1170.43115	-130.15616	1200.06616	1154.22888	-147.05794	1074.75842	1130.00366	-224.36064	978.03009	1161.06458	-346.34073	911.48541	1118.77588	-311.59805	892.37323	1124.27625	-380.90268	843.41895	1536.90845	-199.18111	931.90344	1319.81482	-207.74170	927.28760	1480.20776	-15.75402	939.09369	1336.68909	-22.36917	944.92694	1608.42749	-253.10510	617.86389	1590.12842	-284.62692	487.16772	1600.05591	-258.06750	302.33047	1554.03455	-275.18884	78.82537	1492.96375	-244.42897	43.19590	1572.23694	-418.88425	60.44859	1274.73792	-109.99653	598.75293	1304.27185	-87.75660	440.62982	1299.51819	-6.48796	283.41611	1355.29651	56.85389	86.50961	1402.95386	113.40084	58.52882	1368.36755	-77.42212	33.21631	1412.13440	-222.49203	1707.37219	-3101.88989	1973.05835	1023.21753	-3140.59473	2012.54492	1021.95355			 
179	1.780	1503.21582	-219.89272	1666.43335	1392.19617	-247.16382	1673.04114	1480.70032	-104.86671	1621.89026	1362.13013	-130.68137	1627.77759	1430.34302	-72.12302	1425.74524	1415.09094	-43.31133	1133.57019	1447.22498	-216.00005	1361.97876	1452.73438	-262.70016	1208.28638	1340.39673	-34.25232	1232.09473	1599.95471	-131.22285	1388.14551	1667.00647	-66.80914	1205.95459	1651.51416	-36.07451	1058.45544	1676.17627	-53.35669	945.92926	1668.09900	-119.00317	821.24304	1677.45203	-59.01517	823.14008	1686.56494	-92.41266	743.99286	1290.49146	-169.43286	1393.58203	1170.96924	-139.82413	1199.75964	1154.38391	-156.89821	1074.49854	1130.25793	-235.87856	978.87262	1161.49280	-357.98856	913.68213	1119.32129	-323.62936	894.09991	1124.66748	-393.68805	846.26984	1537.28528	-209.45511	930.95465	1320.10376	-216.90498	926.49384	1481.44128	-25.68770	938.33728	1337.93945	-31.64108	944.53613	1608.99805	-259.77533	615.19226	1589.56201	-292.91690	485.44934	1601.11804	-275.02136	300.49640	1556.01270	-302.90479	77.49836	1495.30994	-273.33234	39.61209	1572.28174	-447.99796	65.31284	1274.77600	-116.22626	598.49969	1304.20605	-92.67249	440.61765	1299.62756	-9.55844	284.33453	1354.94019	55.85474	87.96420	1402.46118	112.92542	60.57236	1368.30713	-77.53181	33.23388	1413.40662	-232.18887	1706.39087	-3101.93921	1972.94482	1023.84259	-3140.64624	2012.61951	1022.07483			 
180	1.790	1504.56152	-229.58907	1665.44617	1393.51831	-256.90341	1672.13086	1482.04382	-114.62384	1620.91223	1363.40247	-140.40211	1626.87854	1431.69775	-81.70512	1424.76355	1416.35254	-53.04600	1132.61121	1448.32434	-225.68805	1361.07642	1453.43933	-272.58856	1207.38269	1341.52625	-43.89742	1231.28125	1601.16553	-141.15028	1387.12939	1668.04626	-76.29906	1205.00134	1651.96399	-44.97660	1057.81421	1676.27112	-60.81059	945.13531	1668.05640	-124.83599	819.60925	1677.25281	-64.81638	822.30725	1685.99927	-96.94640	742.57410	1291.64001	-178.81987	1392.81250	1171.60095	-149.50293	1199.35669	1154.57605	-166.63977	1074.17102	1130.62451	-246.56172	979.31427	1161.98657	-369.31573	915.58514	1119.90149	-335.27594	895.48389	1125.11169	-405.96545	848.74780	1537.66821	-219.87506	929.94592	1320.42761	-226.19276	925.67047	1482.83728	-35.70441	937.56012	1339.35046	-41.00604	944.16223	1610.22717	-266.73505	612.65033	1589.18762	-301.19678	483.80609	1602.00452	-291.24567	299.14294	1557.67798	-328.99155	76.90238	1497.67969	-299.83087	38.04990	1572.30457	-474.94302	70.23366	1274.82715	-122.82471	598.42432	1304.16797	-97.80822	440.40845	1299.71838	-12.66216	285.40176	1354.78210	55.15525	89.35818	1402.15918	112.42532	62.92219	1368.16101	-77.65677	33.18281	1414.74036	-241.88939	1705.47375	-3101.89038	1973.03735	1023.32343	-3140.56909	2012.49426	1021.93500			 
181	1.800	1505.90369	-239.42477	1664.44604	1394.84875	-266.57626	1671.19592	1483.46631	-124.31856	1619.93213	1364.82922	-150.02893	1625.94739	1433.05420	-91.36026	1423.70569	1417.72241	-62.90384	1131.58264	1449.46875	-235.39331	1360.17175	1454.21167	-282.45193	1206.50085	1342.80078	-53.58858	1230.35925	1602.47229	-151.15694	1386.05908	1669.18530	-86.03339	1203.94385	1652.58557	-54.14291	1057.15076	1676.60486	-68.59441	944.29883	1667.73303	-131.01335	817.82147	1677.25452	-70.99847	821.42023	1685.74854	-101.85489	741.20197	1292.88123	-188.28918	1392.06018	1172.40698	-159.08606	1198.91565	1154.97388	-176.33585	1073.80627	1131.07556	-257.03931	979.63409	1162.54236	-380.40158	917.07043	1120.46252	-346.52670	896.58545	1125.51575	-417.69821	850.68195	1538.03735	-230.51424	928.85352	1320.78687	-235.27261	924.64569	1484.26099	-46.00201	936.78601	1340.75183	-50.66914	943.61395	1611.39355	-273.85483	610.09833	1589.21033	-309.46628	482.40543	1602.74829	-306.44061	298.01538	1558.96240	-353.11136	77.01264	1499.16162	-324.95456	36.57855	1572.25403	-499.54770	75.17269	1274.90979	-129.52455	598.18616	1304.31543	-103.04414	440.25717	1299.62048	-16.13910	286.27402	1354.26074	54.04676	90.99978	1401.55786	111.76220	65.12895	1368.11987	-77.78533	33.22277	1416.09668	-251.54990	1704.53101	-3101.95581	1973.16541	1023.13086	-3140.54053	2012.54553	1021.97388			 
